G04 #@! TF.GenerationSoftware,KiCad,Pcbnew,(5.1.5)-3*
G04 #@! TF.CreationDate,2020-06-09T16:26:15+03:00*
G04 #@! TF.ProjectId,Arduino_Uno_R4,41726475-696e-46f5-9f55-6e6f5f52342e,rev?*
G04 #@! TF.SameCoordinates,Original*
G04 #@! TF.FileFunction,Legend,Top*
G04 #@! TF.FilePolarity,Positive*
%FSLAX46Y46*%
G04 Gerber Fmt 4.6, Leading zero omitted, Abs format (unit mm)*
G04 Created by KiCad (PCBNEW (5.1.5)-3) date 2020-06-09 16:26:15*
%MOMM*%
%LPD*%
G04 APERTURE LIST*
%ADD10C,0.150000*%
%ADD11C,0.200000*%
%ADD12C,0.120000*%
G04 APERTURE END LIST*
D10*
X91692200Y-64427933D02*
X91692200Y-65127933D01*
X90958866Y-64494600D02*
X90992200Y-64461266D01*
X91092200Y-64427933D01*
X91158866Y-64427933D01*
X91258866Y-64461266D01*
X91325533Y-64527933D01*
X91358866Y-64594600D01*
X91392200Y-64727933D01*
X91392200Y-64827933D01*
X91358866Y-64961266D01*
X91325533Y-65027933D01*
X91258866Y-65094600D01*
X91158866Y-65127933D01*
X91092200Y-65127933D01*
X90992200Y-65094600D01*
X90958866Y-65061266D01*
X90692200Y-64461266D02*
X90592200Y-64427933D01*
X90425533Y-64427933D01*
X90358866Y-64461266D01*
X90325533Y-64494600D01*
X90292200Y-64561266D01*
X90292200Y-64627933D01*
X90325533Y-64694600D01*
X90358866Y-64727933D01*
X90425533Y-64761266D01*
X90558866Y-64794600D01*
X90625533Y-64827933D01*
X90658866Y-64861266D01*
X90692200Y-64927933D01*
X90692200Y-64994600D01*
X90658866Y-65061266D01*
X90625533Y-65094600D01*
X90558866Y-65127933D01*
X90392200Y-65127933D01*
X90292200Y-65094600D01*
X89992200Y-64427933D02*
X89992200Y-65127933D01*
X89725533Y-65127933D01*
X89658866Y-65094600D01*
X89625533Y-65061266D01*
X89592200Y-64994600D01*
X89592200Y-64894600D01*
X89625533Y-64827933D01*
X89658866Y-64794600D01*
X89725533Y-64761266D01*
X89992200Y-64761266D01*
X88925533Y-64427933D02*
X89325533Y-64427933D01*
X89125533Y-64427933D02*
X89125533Y-65127933D01*
X89192200Y-65027933D01*
X89258866Y-64961266D01*
X89325533Y-64927933D01*
X88325533Y-65127933D02*
X88458866Y-65127933D01*
X88525533Y-65094600D01*
X88558866Y-65061266D01*
X88625533Y-64961266D01*
X88658866Y-64827933D01*
X88658866Y-64561266D01*
X88625533Y-64494600D01*
X88592200Y-64461266D01*
X88525533Y-64427933D01*
X88392200Y-64427933D01*
X88325533Y-64461266D01*
X88292200Y-64494600D01*
X88258866Y-64561266D01*
X88258866Y-64727933D01*
X88292200Y-64794600D01*
X88325533Y-64827933D01*
X88392200Y-64861266D01*
X88525533Y-64861266D01*
X88592200Y-64827933D01*
X88625533Y-64794600D01*
X88658866Y-64727933D01*
D11*
X58643780Y-91212561D02*
X57643780Y-91212561D01*
X58548542Y-90164942D02*
X58596161Y-90212561D01*
X58643780Y-90355419D01*
X58643780Y-90450657D01*
X58596161Y-90593514D01*
X58500923Y-90688752D01*
X58405685Y-90736371D01*
X58215209Y-90783990D01*
X58072352Y-90783990D01*
X57881876Y-90736371D01*
X57786638Y-90688752D01*
X57691400Y-90593514D01*
X57643780Y-90450657D01*
X57643780Y-90355419D01*
X57691400Y-90212561D01*
X57739019Y-90164942D01*
X58596161Y-89783990D02*
X58643780Y-89641133D01*
X58643780Y-89403038D01*
X58596161Y-89307800D01*
X58548542Y-89260180D01*
X58453304Y-89212561D01*
X58358066Y-89212561D01*
X58262828Y-89260180D01*
X58215209Y-89307800D01*
X58167590Y-89403038D01*
X58119971Y-89593514D01*
X58072352Y-89688752D01*
X58024733Y-89736371D01*
X57929495Y-89783990D01*
X57834257Y-89783990D01*
X57739019Y-89736371D01*
X57691400Y-89688752D01*
X57643780Y-89593514D01*
X57643780Y-89355419D01*
X57691400Y-89212561D01*
X58643780Y-88783990D02*
X57643780Y-88783990D01*
X57643780Y-88403038D01*
X57691400Y-88307800D01*
X57739019Y-88260180D01*
X57834257Y-88212561D01*
X57977114Y-88212561D01*
X58072352Y-88260180D01*
X58119971Y-88307800D01*
X58167590Y-88403038D01*
X58167590Y-88783990D01*
X57643780Y-87879228D02*
X57643780Y-87260180D01*
X58024733Y-87593514D01*
X58024733Y-87450657D01*
X58072352Y-87355419D01*
X58119971Y-87307800D01*
X58215209Y-87260180D01*
X58453304Y-87260180D01*
X58548542Y-87307800D01*
X58596161Y-87355419D01*
X58643780Y-87450657D01*
X58643780Y-87736371D01*
X58596161Y-87831609D01*
X58548542Y-87879228D01*
X57739019Y-86879228D02*
X57691400Y-86831609D01*
X57643780Y-86736371D01*
X57643780Y-86498276D01*
X57691400Y-86403038D01*
X57739019Y-86355419D01*
X57834257Y-86307800D01*
X57929495Y-86307800D01*
X58072352Y-86355419D01*
X58643780Y-86926847D01*
X58643780Y-86307800D01*
X58072352Y-85736371D02*
X58024733Y-85831609D01*
X57977114Y-85879228D01*
X57881876Y-85926847D01*
X57834257Y-85926847D01*
X57739019Y-85879228D01*
X57691400Y-85831609D01*
X57643780Y-85736371D01*
X57643780Y-85545895D01*
X57691400Y-85450657D01*
X57739019Y-85403038D01*
X57834257Y-85355419D01*
X57881876Y-85355419D01*
X57977114Y-85403038D01*
X58024733Y-85450657D01*
X58072352Y-85545895D01*
X58072352Y-85736371D01*
X58119971Y-85831609D01*
X58167590Y-85879228D01*
X58262828Y-85926847D01*
X58453304Y-85926847D01*
X58548542Y-85879228D01*
X58596161Y-85831609D01*
X58643780Y-85736371D01*
X58643780Y-85545895D01*
X58596161Y-85450657D01*
X58548542Y-85403038D01*
X58453304Y-85355419D01*
X58262828Y-85355419D01*
X58167590Y-85403038D01*
X58119971Y-85450657D01*
X58072352Y-85545895D01*
X58643780Y-84926847D02*
X57643780Y-84926847D01*
X57643780Y-84545895D01*
X57691400Y-84450657D01*
X57739019Y-84403038D01*
X57834257Y-84355419D01*
X57977114Y-84355419D01*
X58072352Y-84403038D01*
X58119971Y-84450657D01*
X58167590Y-84545895D01*
X58167590Y-84926847D01*
D10*
X84175400Y-62209419D02*
X84175400Y-63209419D01*
X83718257Y-63209419D01*
X83603971Y-63161800D01*
X83546828Y-63114180D01*
X83489685Y-63018942D01*
X83489685Y-62876085D01*
X83546828Y-62780847D01*
X83603971Y-62733228D01*
X83718257Y-62685609D01*
X84175400Y-62685609D01*
X83089685Y-63209419D02*
X82803971Y-62209419D01*
X82575400Y-62923704D01*
X82346828Y-62209419D01*
X82061114Y-63209419D01*
X80918257Y-62209419D02*
X81318257Y-62685609D01*
X81603971Y-62209419D02*
X81603971Y-63209419D01*
X81146828Y-63209419D01*
X81032542Y-63161800D01*
X80975400Y-63114180D01*
X80918257Y-63018942D01*
X80918257Y-62876085D01*
X80975400Y-62780847D01*
X81032542Y-62733228D01*
X81146828Y-62685609D01*
X81603971Y-62685609D01*
X62239200Y-62107819D02*
X62239200Y-63107819D01*
X61782057Y-63107819D01*
X61667771Y-63060200D01*
X61610628Y-63012580D01*
X61553485Y-62917342D01*
X61553485Y-62774485D01*
X61610628Y-62679247D01*
X61667771Y-62631628D01*
X61782057Y-62584009D01*
X62239200Y-62584009D01*
X60810628Y-63107819D02*
X60582057Y-63107819D01*
X60467771Y-63060200D01*
X60353485Y-62964961D01*
X60296342Y-62774485D01*
X60296342Y-62441152D01*
X60353485Y-62250676D01*
X60467771Y-62155438D01*
X60582057Y-62107819D01*
X60810628Y-62107819D01*
X60924914Y-62155438D01*
X61039200Y-62250676D01*
X61096342Y-62441152D01*
X61096342Y-62774485D01*
X61039200Y-62964961D01*
X60924914Y-63060200D01*
X60810628Y-63107819D01*
X59096342Y-62107819D02*
X59496342Y-62584009D01*
X59782057Y-62107819D02*
X59782057Y-63107819D01*
X59324914Y-63107819D01*
X59210628Y-63060200D01*
X59153485Y-63012580D01*
X59096342Y-62917342D01*
X59096342Y-62774485D01*
X59153485Y-62679247D01*
X59210628Y-62631628D01*
X59324914Y-62584009D01*
X59782057Y-62584009D01*
X58753485Y-63107819D02*
X58067771Y-63107819D01*
X58410628Y-62107819D02*
X58410628Y-63107819D01*
X57667771Y-62107819D02*
X57667771Y-63107819D01*
X57382057Y-63107819D01*
X57210628Y-63060200D01*
X57096342Y-62964961D01*
X57039200Y-62869723D01*
X56982057Y-62679247D01*
X56982057Y-62536390D01*
X57039200Y-62345914D01*
X57096342Y-62250676D01*
X57210628Y-62155438D01*
X57382057Y-62107819D01*
X57667771Y-62107819D01*
X73625400Y-92857580D02*
X73625400Y-91857580D01*
X74082542Y-91857580D01*
X74196828Y-91905200D01*
X74253971Y-91952819D01*
X74311114Y-92048057D01*
X74311114Y-92190914D01*
X74253971Y-92286152D01*
X74196828Y-92333771D01*
X74082542Y-92381390D01*
X73625400Y-92381390D01*
X75053971Y-91857580D02*
X75282542Y-91857580D01*
X75396828Y-91905200D01*
X75511114Y-92000438D01*
X75568257Y-92190914D01*
X75568257Y-92524247D01*
X75511114Y-92714723D01*
X75396828Y-92809961D01*
X75282542Y-92857580D01*
X75053971Y-92857580D01*
X74939685Y-92809961D01*
X74825400Y-92714723D01*
X74768257Y-92524247D01*
X74768257Y-92190914D01*
X74825400Y-92000438D01*
X74939685Y-91905200D01*
X75053971Y-91857580D01*
X76768257Y-92857580D02*
X76368257Y-92381390D01*
X76082542Y-92857580D02*
X76082542Y-91857580D01*
X76539685Y-91857580D01*
X76653971Y-91905200D01*
X76711114Y-91952819D01*
X76768257Y-92048057D01*
X76768257Y-92190914D01*
X76711114Y-92286152D01*
X76653971Y-92333771D01*
X76539685Y-92381390D01*
X76082542Y-92381390D01*
X77111114Y-91857580D02*
X77796828Y-91857580D01*
X77453971Y-92857580D02*
X77453971Y-91857580D01*
X78882542Y-92762342D02*
X78825400Y-92809961D01*
X78653971Y-92857580D01*
X78539685Y-92857580D01*
X78368257Y-92809961D01*
X78253971Y-92714723D01*
X78196828Y-92619485D01*
X78139685Y-92429009D01*
X78139685Y-92286152D01*
X78196828Y-92095676D01*
X78253971Y-92000438D01*
X78368257Y-91905200D01*
X78539685Y-91857580D01*
X78653971Y-91857580D01*
X78825400Y-91905200D01*
X78882542Y-91952819D01*
X54600800Y-92882980D02*
X54600800Y-91882980D01*
X55057942Y-91882980D01*
X55172228Y-91930600D01*
X55229371Y-91978219D01*
X55286514Y-92073457D01*
X55286514Y-92216314D01*
X55229371Y-92311552D01*
X55172228Y-92359171D01*
X55057942Y-92406790D01*
X54600800Y-92406790D01*
X56029371Y-91882980D02*
X56257942Y-91882980D01*
X56372228Y-91930600D01*
X56486514Y-92025838D01*
X56543657Y-92216314D01*
X56543657Y-92549647D01*
X56486514Y-92740123D01*
X56372228Y-92835361D01*
X56257942Y-92882980D01*
X56029371Y-92882980D01*
X55915085Y-92835361D01*
X55800800Y-92740123D01*
X55743657Y-92549647D01*
X55743657Y-92216314D01*
X55800800Y-92025838D01*
X55915085Y-91930600D01*
X56029371Y-91882980D01*
X57743657Y-92882980D02*
X57343657Y-92406790D01*
X57057942Y-92882980D02*
X57057942Y-91882980D01*
X57515085Y-91882980D01*
X57629371Y-91930600D01*
X57686514Y-91978219D01*
X57743657Y-92073457D01*
X57743657Y-92216314D01*
X57686514Y-92311552D01*
X57629371Y-92359171D01*
X57515085Y-92406790D01*
X57057942Y-92406790D01*
X58086514Y-91882980D02*
X58772228Y-91882980D01*
X58429371Y-92882980D02*
X58429371Y-91882980D01*
X59572228Y-92359171D02*
X59743657Y-92406790D01*
X59800800Y-92454409D01*
X59857942Y-92549647D01*
X59857942Y-92692504D01*
X59800800Y-92787742D01*
X59743657Y-92835361D01*
X59629371Y-92882980D01*
X59172228Y-92882980D01*
X59172228Y-91882980D01*
X59572228Y-91882980D01*
X59686514Y-91930600D01*
X59743657Y-91978219D01*
X59800800Y-92073457D01*
X59800800Y-92168695D01*
X59743657Y-92263933D01*
X59686514Y-92311552D01*
X59572228Y-92359171D01*
X59172228Y-92359171D01*
D12*
X62407800Y-71932800D02*
X62407800Y-74879200D01*
X61010800Y-71932800D02*
X61010800Y-74879200D01*
X58166000Y-71932800D02*
X58166000Y-74879200D01*
X59588400Y-71932800D02*
X59588400Y-74879200D01*
X56718200Y-71932800D02*
X56718200Y-74879200D01*
X55245000Y-71932800D02*
X55245000Y-74879200D01*
X63830200Y-71932800D02*
X55245000Y-71932800D01*
X63830200Y-74879200D02*
X63830200Y-71932800D01*
X55245000Y-74879200D02*
X63830200Y-74879200D01*
X75814422Y-62383600D02*
X76331578Y-62383600D01*
X75814422Y-63803600D02*
X76331578Y-63803600D01*
X69544000Y-72717922D02*
X69544000Y-73235078D01*
X68124000Y-72717922D02*
X68124000Y-73235078D01*
X72646000Y-72735221D02*
X72646000Y-73060779D01*
X71626000Y-72735221D02*
X71626000Y-73060779D01*
X70102000Y-73060779D02*
X70102000Y-72735221D01*
X71122000Y-73060779D02*
X71122000Y-72735221D01*
X76252800Y-75219779D02*
X76252800Y-74894221D01*
X75232800Y-75219779D02*
X75232800Y-74894221D01*
X74170000Y-73035279D02*
X74170000Y-72709721D01*
X73150000Y-73035279D02*
X73150000Y-72709721D01*
X55041721Y-81282000D02*
X55367279Y-81282000D01*
X55041721Y-80262000D02*
X55367279Y-80262000D01*
X52105779Y-81282000D02*
X51780221Y-81282000D01*
X52105779Y-80262000D02*
X51780221Y-80262000D01*
X62435200Y-65115121D02*
X62435200Y-65440679D01*
X61415200Y-65115121D02*
X61415200Y-65440679D01*
X74957000Y-70599500D02*
X74957000Y-72884500D01*
X74957000Y-72884500D02*
X76427000Y-72884500D01*
X76427000Y-72884500D02*
X76427000Y-70599500D01*
X64024000Y-76036000D02*
X64024000Y-72136000D01*
X66024000Y-76036000D02*
X66024000Y-72136000D01*
X64024000Y-76036000D02*
X66024000Y-76036000D01*
X78942000Y-75188578D02*
X78942000Y-74671422D01*
X77522000Y-75188578D02*
X77522000Y-74671422D01*
X93684400Y-64220400D02*
X93684400Y-59020400D01*
X88544400Y-64220400D02*
X93684400Y-64220400D01*
X85944400Y-59020400D02*
X93684400Y-59020400D01*
X88544400Y-64220400D02*
X88544400Y-61620400D01*
X88544400Y-61620400D02*
X85944400Y-61620400D01*
X85944400Y-61620400D02*
X85944400Y-59020400D01*
X87274400Y-64220400D02*
X85944400Y-64220400D01*
X85944400Y-64220400D02*
X85944400Y-62890400D01*
X83940000Y-77005000D02*
X79680000Y-77005000D01*
X79680000Y-77005000D02*
X79680000Y-89325000D01*
X79680000Y-89325000D02*
X83940000Y-89325000D01*
X88040000Y-77005000D02*
X96400000Y-77005000D01*
X96400000Y-77005000D02*
X96400000Y-89325000D01*
X96400000Y-89325000D02*
X88040000Y-89325000D01*
X79460000Y-81915000D02*
X78960000Y-81415000D01*
X78960000Y-81415000D02*
X78960000Y-82415000D01*
X78960000Y-82415000D02*
X79460000Y-81915000D01*
X48962000Y-90484000D02*
X48962000Y-89154000D01*
X50292000Y-90484000D02*
X48962000Y-90484000D01*
X48962000Y-87884000D02*
X48962000Y-85284000D01*
X51562000Y-87884000D02*
X48962000Y-87884000D01*
X51562000Y-90484000D02*
X51562000Y-87884000D01*
X48962000Y-85284000D02*
X56702000Y-85284000D01*
X51562000Y-90484000D02*
X56702000Y-90484000D01*
X56702000Y-90484000D02*
X56702000Y-85284000D01*
X78799000Y-78518248D02*
X78799000Y-81290752D01*
X75379000Y-78518248D02*
X75379000Y-81290752D01*
X75182000Y-68213921D02*
X75182000Y-68539479D01*
X76202000Y-68213921D02*
X76202000Y-68539479D01*
X55407779Y-83060000D02*
X55082221Y-83060000D01*
X55407779Y-82040000D02*
X55082221Y-82040000D01*
X67566000Y-72760721D02*
X67566000Y-73086279D01*
X66546000Y-72760721D02*
X66546000Y-73086279D01*
X64010000Y-65440879D02*
X64010000Y-65115321D01*
X62990000Y-65440879D02*
X62990000Y-65115321D01*
X68924000Y-78458000D02*
X68924000Y-78358000D01*
X68924000Y-74958000D02*
X68924000Y-75058000D01*
X73824000Y-75058000D02*
X73824000Y-74958000D01*
X73824000Y-78458000D02*
X73824000Y-78358000D01*
X73824000Y-77058000D02*
X73824000Y-76358000D01*
X68924000Y-77058000D02*
X68924000Y-76358000D01*
X68924000Y-78458000D02*
X73824000Y-78458000D01*
X73824000Y-74958000D02*
X68924000Y-74958000D01*
X73315000Y-70720000D02*
X67305000Y-70720000D01*
X71065000Y-63900000D02*
X67305000Y-63900000D01*
X67305000Y-70720000D02*
X67305000Y-69460000D01*
X67305000Y-63900000D02*
X67305000Y-65160000D01*
X68396000Y-88241000D02*
X68396000Y-88716000D01*
X68396000Y-88716000D02*
X67921000Y-88716000D01*
X63176000Y-83971000D02*
X63176000Y-83496000D01*
X63176000Y-83496000D02*
X63651000Y-83496000D01*
X63176000Y-88241000D02*
X63176000Y-88716000D01*
X63176000Y-88716000D02*
X63651000Y-88716000D01*
X68396000Y-83971000D02*
X68396000Y-83496000D01*
X79242000Y-66120000D02*
X77222000Y-66120000D01*
X77222000Y-66120000D02*
X77222000Y-69800000D01*
X79242000Y-66120000D02*
X79242000Y-69800000D01*
X64855400Y-95894200D02*
X64855400Y-93234200D01*
X52095400Y-95894200D02*
X64855400Y-95894200D01*
X52095400Y-93234200D02*
X64855400Y-93234200D01*
X52095400Y-95894200D02*
X52095400Y-93234200D01*
X50825400Y-95894200D02*
X49495400Y-95894200D01*
X49495400Y-95894200D02*
X49495400Y-94564200D01*
X84946800Y-61655000D02*
X84946800Y-58995000D01*
X74726800Y-61655000D02*
X84946800Y-61655000D01*
X74726800Y-58995000D02*
X84946800Y-58995000D01*
X74726800Y-61655000D02*
X74726800Y-58995000D01*
X73456800Y-61655000D02*
X72126800Y-61655000D01*
X72126800Y-61655000D02*
X72126800Y-60325000D01*
X85175400Y-95894200D02*
X85175400Y-93234200D01*
X69875400Y-95894200D02*
X85175400Y-95894200D01*
X69875400Y-93234200D02*
X85175400Y-93234200D01*
X69875400Y-95894200D02*
X69875400Y-93234200D01*
X68605400Y-95894200D02*
X67275400Y-95894200D01*
X67275400Y-95894200D02*
X67275400Y-94564200D01*
X49470000Y-58969600D02*
X49470000Y-61629600D01*
X67310000Y-58969600D02*
X49470000Y-58969600D01*
X67310000Y-61629600D02*
X49470000Y-61629600D01*
X67310000Y-58969600D02*
X67310000Y-61629600D01*
X68580000Y-58969600D02*
X69910000Y-58969600D01*
X69910000Y-58969600D02*
X69910000Y-60299600D01*
D10*
X54001990Y-70910390D02*
X54478180Y-70910390D01*
X53478180Y-71243723D02*
X54001990Y-70910390D01*
X53478180Y-70577057D01*
X53573419Y-70291342D02*
X53525800Y-70243723D01*
X53478180Y-70148485D01*
X53478180Y-69910390D01*
X53525800Y-69815152D01*
X53573419Y-69767533D01*
X53668657Y-69719914D01*
X53763895Y-69719914D01*
X53906752Y-69767533D01*
X54478180Y-70338961D01*
X54478180Y-69719914D01*
X94778580Y-74602933D02*
X95492866Y-74602933D01*
X95635723Y-74650552D01*
X95730961Y-74745790D01*
X95778580Y-74888647D01*
X95778580Y-74983885D01*
X95778580Y-73602933D02*
X95778580Y-74174361D01*
X95778580Y-73888647D02*
X94778580Y-73888647D01*
X94921438Y-73983885D01*
X95016676Y-74079123D01*
X95064295Y-74174361D01*
X78995542Y-63336466D02*
X79043161Y-63384085D01*
X79090780Y-63526942D01*
X79090780Y-63622180D01*
X79043161Y-63765038D01*
X78947923Y-63860276D01*
X78852685Y-63907895D01*
X78662209Y-63955514D01*
X78519352Y-63955514D01*
X78328876Y-63907895D01*
X78233638Y-63860276D01*
X78138400Y-63765038D01*
X78090780Y-63622180D01*
X78090780Y-63526942D01*
X78138400Y-63384085D01*
X78186019Y-63336466D01*
X78186019Y-62955514D02*
X78138400Y-62907895D01*
X78090780Y-62812657D01*
X78090780Y-62574561D01*
X78138400Y-62479323D01*
X78186019Y-62431704D01*
X78281257Y-62384085D01*
X78376495Y-62384085D01*
X78519352Y-62431704D01*
X79090780Y-63003133D01*
X79090780Y-62384085D01*
X59285142Y-73598066D02*
X59332761Y-73645685D01*
X59380380Y-73788542D01*
X59380380Y-73883780D01*
X59332761Y-74026638D01*
X59237523Y-74121876D01*
X59142285Y-74169495D01*
X58951809Y-74217114D01*
X58808952Y-74217114D01*
X58618476Y-74169495D01*
X58523238Y-74121876D01*
X58428000Y-74026638D01*
X58380380Y-73883780D01*
X58380380Y-73788542D01*
X58428000Y-73645685D01*
X58475619Y-73598066D01*
X58380380Y-73264733D02*
X58380380Y-72645685D01*
X58761333Y-72979019D01*
X58761333Y-72836161D01*
X58808952Y-72740923D01*
X58856571Y-72693304D01*
X58951809Y-72645685D01*
X59189904Y-72645685D01*
X59285142Y-72693304D01*
X59332761Y-72740923D01*
X59380380Y-72836161D01*
X59380380Y-73121876D01*
X59332761Y-73217114D01*
X59285142Y-73264733D01*
X63552342Y-73598066D02*
X63599961Y-73645685D01*
X63647580Y-73788542D01*
X63647580Y-73883780D01*
X63599961Y-74026638D01*
X63504723Y-74121876D01*
X63409485Y-74169495D01*
X63219009Y-74217114D01*
X63076152Y-74217114D01*
X62885676Y-74169495D01*
X62790438Y-74121876D01*
X62695200Y-74026638D01*
X62647580Y-73883780D01*
X62647580Y-73788542D01*
X62695200Y-73645685D01*
X62742819Y-73598066D01*
X62980914Y-72740923D02*
X63647580Y-72740923D01*
X62599961Y-72979019D02*
X63314247Y-73217114D01*
X63314247Y-72598066D01*
X60707542Y-73598066D02*
X60755161Y-73645685D01*
X60802780Y-73788542D01*
X60802780Y-73883780D01*
X60755161Y-74026638D01*
X60659923Y-74121876D01*
X60564685Y-74169495D01*
X60374209Y-74217114D01*
X60231352Y-74217114D01*
X60040876Y-74169495D01*
X59945638Y-74121876D01*
X59850400Y-74026638D01*
X59802780Y-73883780D01*
X59802780Y-73788542D01*
X59850400Y-73645685D01*
X59898019Y-73598066D01*
X59802780Y-72693304D02*
X59802780Y-73169495D01*
X60278971Y-73217114D01*
X60231352Y-73169495D01*
X60183733Y-73074257D01*
X60183733Y-72836161D01*
X60231352Y-72740923D01*
X60278971Y-72693304D01*
X60374209Y-72645685D01*
X60612304Y-72645685D01*
X60707542Y-72693304D01*
X60755161Y-72740923D01*
X60802780Y-72836161D01*
X60802780Y-73074257D01*
X60755161Y-73169495D01*
X60707542Y-73217114D01*
X77125485Y-75131600D02*
X77154057Y-75160171D01*
X77182628Y-75245885D01*
X77182628Y-75303028D01*
X77154057Y-75388742D01*
X77096914Y-75445885D01*
X77039771Y-75474457D01*
X76925485Y-75503028D01*
X76839771Y-75503028D01*
X76725485Y-75474457D01*
X76668342Y-75445885D01*
X76611200Y-75388742D01*
X76582628Y-75303028D01*
X76582628Y-75245885D01*
X76611200Y-75160171D01*
X76639771Y-75131600D01*
X76839771Y-74788742D02*
X76811200Y-74845885D01*
X76782628Y-74874457D01*
X76725485Y-74903028D01*
X76696914Y-74903028D01*
X76639771Y-74874457D01*
X76611200Y-74845885D01*
X76582628Y-74788742D01*
X76582628Y-74674457D01*
X76611200Y-74617314D01*
X76639771Y-74588742D01*
X76696914Y-74560171D01*
X76725485Y-74560171D01*
X76782628Y-74588742D01*
X76811200Y-74617314D01*
X76839771Y-74674457D01*
X76839771Y-74788742D01*
X76868342Y-74845885D01*
X76896914Y-74874457D01*
X76954057Y-74903028D01*
X77068342Y-74903028D01*
X77125485Y-74874457D01*
X77154057Y-74845885D01*
X77182628Y-74788742D01*
X77182628Y-74674457D01*
X77154057Y-74617314D01*
X77125485Y-74588742D01*
X77068342Y-74560171D01*
X76954057Y-74560171D01*
X76896914Y-74588742D01*
X76868342Y-74617314D01*
X76839771Y-74674457D01*
X62129942Y-73598066D02*
X62177561Y-73645685D01*
X62225180Y-73788542D01*
X62225180Y-73883780D01*
X62177561Y-74026638D01*
X62082323Y-74121876D01*
X61987085Y-74169495D01*
X61796609Y-74217114D01*
X61653752Y-74217114D01*
X61463276Y-74169495D01*
X61368038Y-74121876D01*
X61272800Y-74026638D01*
X61225180Y-73883780D01*
X61225180Y-73788542D01*
X61272800Y-73645685D01*
X61320419Y-73598066D01*
X62225180Y-73121876D02*
X62225180Y-72931400D01*
X62177561Y-72836161D01*
X62129942Y-72788542D01*
X61987085Y-72693304D01*
X61796609Y-72645685D01*
X61415657Y-72645685D01*
X61320419Y-72693304D01*
X61272800Y-72740923D01*
X61225180Y-72836161D01*
X61225180Y-73026638D01*
X61272800Y-73121876D01*
X61320419Y-73169495D01*
X61415657Y-73217114D01*
X61653752Y-73217114D01*
X61748990Y-73169495D01*
X61796609Y-73121876D01*
X61844228Y-73026638D01*
X61844228Y-72836161D01*
X61796609Y-72740923D01*
X61748990Y-72693304D01*
X61653752Y-72645685D01*
X58065942Y-81465657D02*
X58113561Y-81513276D01*
X58161180Y-81656133D01*
X58161180Y-81751371D01*
X58113561Y-81894228D01*
X58018323Y-81989466D01*
X57923085Y-82037085D01*
X57732609Y-82084704D01*
X57589752Y-82084704D01*
X57399276Y-82037085D01*
X57304038Y-81989466D01*
X57208800Y-81894228D01*
X57161180Y-81751371D01*
X57161180Y-81656133D01*
X57208800Y-81513276D01*
X57256419Y-81465657D01*
X58161180Y-80513276D02*
X58161180Y-81084704D01*
X58161180Y-80798990D02*
X57161180Y-80798990D01*
X57304038Y-80894228D01*
X57399276Y-80989466D01*
X57446895Y-81084704D01*
X57161180Y-79894228D02*
X57161180Y-79798990D01*
X57208800Y-79703752D01*
X57256419Y-79656133D01*
X57351657Y-79608514D01*
X57542133Y-79560895D01*
X57780228Y-79560895D01*
X57970704Y-79608514D01*
X58065942Y-79656133D01*
X58113561Y-79703752D01*
X58161180Y-79798990D01*
X58161180Y-79894228D01*
X58113561Y-79989466D01*
X58065942Y-80037085D01*
X57970704Y-80084704D01*
X57780228Y-80132323D01*
X57542133Y-80132323D01*
X57351657Y-80084704D01*
X57256419Y-80037085D01*
X57208800Y-79989466D01*
X57161180Y-79894228D01*
X50064942Y-81364057D02*
X50112561Y-81411676D01*
X50160180Y-81554533D01*
X50160180Y-81649771D01*
X50112561Y-81792628D01*
X50017323Y-81887866D01*
X49922085Y-81935485D01*
X49731609Y-81983104D01*
X49588752Y-81983104D01*
X49398276Y-81935485D01*
X49303038Y-81887866D01*
X49207800Y-81792628D01*
X49160180Y-81649771D01*
X49160180Y-81554533D01*
X49207800Y-81411676D01*
X49255419Y-81364057D01*
X50160180Y-80411676D02*
X50160180Y-80983104D01*
X50160180Y-80697390D02*
X49160180Y-80697390D01*
X49303038Y-80792628D01*
X49398276Y-80887866D01*
X49445895Y-80983104D01*
X50160180Y-79459295D02*
X50160180Y-80030723D01*
X50160180Y-79745009D02*
X49160180Y-79745009D01*
X49303038Y-79840247D01*
X49398276Y-79935485D01*
X49445895Y-80030723D01*
X62256942Y-69045057D02*
X62304561Y-69092676D01*
X62352180Y-69235533D01*
X62352180Y-69330771D01*
X62304561Y-69473628D01*
X62209323Y-69568866D01*
X62114085Y-69616485D01*
X61923609Y-69664104D01*
X61780752Y-69664104D01*
X61590276Y-69616485D01*
X61495038Y-69568866D01*
X61399800Y-69473628D01*
X61352180Y-69330771D01*
X61352180Y-69235533D01*
X61399800Y-69092676D01*
X61447419Y-69045057D01*
X62352180Y-68092676D02*
X62352180Y-68664104D01*
X62352180Y-68378390D02*
X61352180Y-68378390D01*
X61495038Y-68473628D01*
X61590276Y-68568866D01*
X61637895Y-68664104D01*
X61447419Y-67711723D02*
X61399800Y-67664104D01*
X61352180Y-67568866D01*
X61352180Y-67330771D01*
X61399800Y-67235533D01*
X61447419Y-67187914D01*
X61542657Y-67140295D01*
X61637895Y-67140295D01*
X61780752Y-67187914D01*
X62352180Y-67759342D01*
X62352180Y-67140295D01*
X77402885Y-72867371D02*
X76652885Y-72867371D01*
X76652885Y-72688800D01*
X76688600Y-72581657D01*
X76760028Y-72510228D01*
X76831457Y-72474514D01*
X76974314Y-72438800D01*
X77081457Y-72438800D01*
X77224314Y-72474514D01*
X77295742Y-72510228D01*
X77367171Y-72581657D01*
X77402885Y-72688800D01*
X77402885Y-72867371D01*
X76724314Y-72153085D02*
X76688600Y-72117371D01*
X76652885Y-72045942D01*
X76652885Y-71867371D01*
X76688600Y-71795942D01*
X76724314Y-71760228D01*
X76795742Y-71724514D01*
X76867171Y-71724514D01*
X76974314Y-71760228D01*
X77402885Y-72188800D01*
X77402885Y-71724514D01*
X56484780Y-74169495D02*
X55484780Y-74169495D01*
X55484780Y-73931400D01*
X55532400Y-73788542D01*
X55627638Y-73693304D01*
X55722876Y-73645685D01*
X55913352Y-73598066D01*
X56056209Y-73598066D01*
X56246685Y-73645685D01*
X56341923Y-73693304D01*
X56437161Y-73788542D01*
X56484780Y-73931400D01*
X56484780Y-74169495D01*
X55484780Y-73264733D02*
X55484780Y-72598066D01*
X56484780Y-73026638D01*
X79778628Y-75529600D02*
X79778628Y-75779600D01*
X80171485Y-75779600D02*
X79421485Y-75779600D01*
X79421485Y-75422457D01*
X79778628Y-74886742D02*
X79814342Y-74779600D01*
X79850057Y-74743885D01*
X79921485Y-74708171D01*
X80028628Y-74708171D01*
X80100057Y-74743885D01*
X80135771Y-74779600D01*
X80171485Y-74851028D01*
X80171485Y-75136742D01*
X79421485Y-75136742D01*
X79421485Y-74886742D01*
X79457200Y-74815314D01*
X79492914Y-74779600D01*
X79564342Y-74743885D01*
X79635771Y-74743885D01*
X79707200Y-74779600D01*
X79742914Y-74815314D01*
X79778628Y-74886742D01*
X79778628Y-75136742D01*
X80171485Y-73993885D02*
X80171485Y-74422457D01*
X80171485Y-74208171D02*
X79421485Y-74208171D01*
X79528628Y-74279600D01*
X79600057Y-74351028D01*
X79635771Y-74422457D01*
X94905580Y-90706533D02*
X95619866Y-90706533D01*
X95762723Y-90754152D01*
X95857961Y-90849390D01*
X95905580Y-90992247D01*
X95905580Y-91087485D01*
X94905580Y-90325580D02*
X94905580Y-89706533D01*
X95286533Y-90039866D01*
X95286533Y-89897009D01*
X95334152Y-89801771D01*
X95381771Y-89754152D01*
X95477009Y-89706533D01*
X95715104Y-89706533D01*
X95810342Y-89754152D01*
X95857961Y-89801771D01*
X95905580Y-89897009D01*
X95905580Y-90182723D01*
X95857961Y-90277961D01*
X95810342Y-90325580D01*
X74798180Y-82340247D02*
X73798180Y-82340247D01*
X73798180Y-81959295D01*
X73845800Y-81864057D01*
X73893419Y-81816438D01*
X73988657Y-81768819D01*
X74131514Y-81768819D01*
X74226752Y-81816438D01*
X74274371Y-81864057D01*
X74321990Y-81959295D01*
X74321990Y-82340247D01*
X73798180Y-81483104D02*
X73798180Y-80911676D01*
X74798180Y-81197390D02*
X73798180Y-81197390D01*
X74702942Y-80006914D02*
X74750561Y-80054533D01*
X74798180Y-80197390D01*
X74798180Y-80292628D01*
X74750561Y-80435485D01*
X74655323Y-80530723D01*
X74560085Y-80578342D01*
X74369609Y-80625961D01*
X74226752Y-80625961D01*
X74036276Y-80578342D01*
X73941038Y-80530723D01*
X73845800Y-80435485D01*
X73798180Y-80292628D01*
X73798180Y-80197390D01*
X73845800Y-80054533D01*
X73893419Y-80006914D01*
X74798180Y-79054533D02*
X74798180Y-79625961D01*
X74798180Y-79340247D02*
X73798180Y-79340247D01*
X73941038Y-79435485D01*
X74036276Y-79530723D01*
X74083895Y-79625961D01*
X76245980Y-66105066D02*
X75769790Y-66438400D01*
X76245980Y-66676495D02*
X75245980Y-66676495D01*
X75245980Y-66295542D01*
X75293600Y-66200304D01*
X75341219Y-66152685D01*
X75436457Y-66105066D01*
X75579314Y-66105066D01*
X75674552Y-66152685D01*
X75722171Y-66200304D01*
X75769790Y-66295542D01*
X75769790Y-66676495D01*
X75245980Y-65771733D02*
X75245980Y-65152685D01*
X75626933Y-65486019D01*
X75626933Y-65343161D01*
X75674552Y-65247923D01*
X75722171Y-65200304D01*
X75817409Y-65152685D01*
X76055504Y-65152685D01*
X76150742Y-65200304D01*
X76198361Y-65247923D01*
X76245980Y-65343161D01*
X76245980Y-65628876D01*
X76198361Y-65724114D01*
X76150742Y-65771733D01*
X53335180Y-83726257D02*
X52858990Y-84059590D01*
X53335180Y-84297685D02*
X52335180Y-84297685D01*
X52335180Y-83916733D01*
X52382800Y-83821495D01*
X52430419Y-83773876D01*
X52525657Y-83726257D01*
X52668514Y-83726257D01*
X52763752Y-83773876D01*
X52811371Y-83821495D01*
X52858990Y-83916733D01*
X52858990Y-84297685D01*
X53335180Y-82773876D02*
X53335180Y-83345304D01*
X53335180Y-83059590D02*
X52335180Y-83059590D01*
X52478038Y-83154828D01*
X52573276Y-83250066D01*
X52620895Y-83345304D01*
X53335180Y-81821495D02*
X53335180Y-82392923D01*
X53335180Y-82107209D02*
X52335180Y-82107209D01*
X52478038Y-82202447D01*
X52573276Y-82297685D01*
X52620895Y-82392923D01*
X57957980Y-74074257D02*
X57481790Y-74407590D01*
X57957980Y-74645685D02*
X56957980Y-74645685D01*
X56957980Y-74264733D01*
X57005600Y-74169495D01*
X57053219Y-74121876D01*
X57148457Y-74074257D01*
X57291314Y-74074257D01*
X57386552Y-74121876D01*
X57434171Y-74169495D01*
X57481790Y-74264733D01*
X57481790Y-74645685D01*
X57957980Y-73121876D02*
X57957980Y-73693304D01*
X57957980Y-73407590D02*
X56957980Y-73407590D01*
X57100838Y-73502828D01*
X57196076Y-73598066D01*
X57243695Y-73693304D01*
X57053219Y-72740923D02*
X57005600Y-72693304D01*
X56957980Y-72598066D01*
X56957980Y-72359971D01*
X57005600Y-72264733D01*
X57053219Y-72217114D01*
X57148457Y-72169495D01*
X57243695Y-72169495D01*
X57386552Y-72217114D01*
X57957980Y-72788542D01*
X57957980Y-72169495D01*
X63901580Y-69019657D02*
X63425390Y-69352990D01*
X63901580Y-69591085D02*
X62901580Y-69591085D01*
X62901580Y-69210133D01*
X62949200Y-69114895D01*
X62996819Y-69067276D01*
X63092057Y-69019657D01*
X63234914Y-69019657D01*
X63330152Y-69067276D01*
X63377771Y-69114895D01*
X63425390Y-69210133D01*
X63425390Y-69591085D01*
X63901580Y-68067276D02*
X63901580Y-68638704D01*
X63901580Y-68352990D02*
X62901580Y-68352990D01*
X63044438Y-68448228D01*
X63139676Y-68543466D01*
X63187295Y-68638704D01*
X62901580Y-67733942D02*
X62901580Y-67114895D01*
X63282533Y-67448228D01*
X63282533Y-67305371D01*
X63330152Y-67210133D01*
X63377771Y-67162514D01*
X63473009Y-67114895D01*
X63711104Y-67114895D01*
X63806342Y-67162514D01*
X63853961Y-67210133D01*
X63901580Y-67305371D01*
X63901580Y-67591085D01*
X63853961Y-67686323D01*
X63806342Y-67733942D01*
X67486161Y-78600133D02*
X67533780Y-78457276D01*
X67533780Y-78219180D01*
X67486161Y-78123942D01*
X67438542Y-78076323D01*
X67343304Y-78028704D01*
X67248066Y-78028704D01*
X67152828Y-78076323D01*
X67105209Y-78123942D01*
X67057590Y-78219180D01*
X67009971Y-78409657D01*
X66962352Y-78504895D01*
X66914733Y-78552514D01*
X66819495Y-78600133D01*
X66724257Y-78600133D01*
X66629019Y-78552514D01*
X66581400Y-78504895D01*
X66533780Y-78409657D01*
X66533780Y-78171561D01*
X66581400Y-78028704D01*
X66533780Y-77695371D02*
X67533780Y-77457276D01*
X66819495Y-77266800D01*
X67533780Y-77076323D01*
X66533780Y-76838228D01*
X67533780Y-75933466D02*
X67533780Y-76504895D01*
X67533780Y-76219180D02*
X66533780Y-76219180D01*
X66676638Y-76314419D01*
X66771876Y-76409657D01*
X66819495Y-76504895D01*
X73874380Y-65963704D02*
X74683904Y-65963704D01*
X74779142Y-65916085D01*
X74826761Y-65868466D01*
X74874380Y-65773228D01*
X74874380Y-65582752D01*
X74826761Y-65487514D01*
X74779142Y-65439895D01*
X74683904Y-65392276D01*
X73874380Y-65392276D01*
X73874380Y-65011323D02*
X73874380Y-64392276D01*
X74255333Y-64725609D01*
X74255333Y-64582752D01*
X74302952Y-64487514D01*
X74350571Y-64439895D01*
X74445809Y-64392276D01*
X74683904Y-64392276D01*
X74779142Y-64439895D01*
X74826761Y-64487514D01*
X74874380Y-64582752D01*
X74874380Y-64868466D01*
X74826761Y-64963704D01*
X74779142Y-65011323D01*
X69200780Y-88874504D02*
X70010304Y-88874504D01*
X70105542Y-88826885D01*
X70153161Y-88779266D01*
X70200780Y-88684028D01*
X70200780Y-88493552D01*
X70153161Y-88398314D01*
X70105542Y-88350695D01*
X70010304Y-88303076D01*
X69200780Y-88303076D01*
X69200780Y-87398314D02*
X69200780Y-87588790D01*
X69248400Y-87684028D01*
X69296019Y-87731647D01*
X69438876Y-87826885D01*
X69629352Y-87874504D01*
X70010304Y-87874504D01*
X70105542Y-87826885D01*
X70153161Y-87779266D01*
X70200780Y-87684028D01*
X70200780Y-87493552D01*
X70153161Y-87398314D01*
X70105542Y-87350695D01*
X70010304Y-87303076D01*
X69772209Y-87303076D01*
X69676971Y-87350695D01*
X69629352Y-87398314D01*
X69581733Y-87493552D01*
X69581733Y-87684028D01*
X69629352Y-87779266D01*
X69676971Y-87826885D01*
X69772209Y-87874504D01*
X78735180Y-72391495D02*
X77735180Y-72391495D01*
X77735180Y-72153400D01*
X77782800Y-72010542D01*
X77878038Y-71915304D01*
X77973276Y-71867685D01*
X78163752Y-71820066D01*
X78306609Y-71820066D01*
X78497085Y-71867685D01*
X78592323Y-71915304D01*
X78687561Y-72010542D01*
X78735180Y-72153400D01*
X78735180Y-72391495D01*
X78735180Y-70867685D02*
X78735180Y-71439114D01*
X78735180Y-71153400D02*
X77735180Y-71153400D01*
X77878038Y-71248638D01*
X77973276Y-71343876D01*
X78020895Y-71439114D01*
M02*
