M48
; DRILL file {KiCad (5.1.5)-3} date 09/06/2020 16:26:20
; FORMAT={-:-/ absolute / inch / decimal}
; #@! TF.CreationDate,2020-06-09T16:26:20+03:00
; #@! TF.GenerationSoftware,Kicad,Pcbnew,(5.1.5)-3
; #@! TF.FileFunction,Plated,1,2,PTH
FMAT,2
INCH
T1C0.0157
T2C0.0362
T3C0.0394
T4C0.0433
T5C0.0917
%
G90
G05
T1
X1.997Y-3.332
X2.014Y-2.723
X2.089Y-3.123
X2.285Y-3.315
X2.3154Y-3.1745
X2.3154Y-3.206
X2.354Y-2.527
X2.362Y-2.604
X2.3784Y-2.6436
X2.4Y-3.52
X2.419Y-3.29
X2.4246Y-3.241
X2.425Y-3.55
X2.4269Y-3.2082
X2.498Y-2.498
X2.5Y-3.655
X2.534Y-2.923
X2.5419Y-2.7221
X2.5457Y-3.533
X2.561Y-2.8006
X2.562Y-2.75
X2.566Y-2.885
X2.569Y-3.5684
X2.577Y-2.505
X2.6174Y-3.2393
X2.635Y-2.751
X2.635Y-3.625
X2.6589Y-3.2459
X2.6631Y-3.1069
X2.69Y-3.24
X2.701Y-3.134
X2.71Y-2.838
X2.7231Y-3.2383
X2.747Y-2.73
X2.7573Y-3.2377
X2.7801Y-2.592
X2.788Y-3.1334
X2.796Y-2.434
X2.7998Y-3.3772
X2.812Y-3.106
X2.826Y-3.262
X2.841Y-2.903
X2.8522Y-3.2402
X2.904Y-3.289
X2.9052Y-2.6068
X2.911Y-3.022
X2.9164Y-2.6363
X2.919Y-2.941
X2.9234Y-3.107
X2.934Y-2.81
X2.9416Y-2.6734
X2.9909Y-2.5304
X3.013Y-2.5912
X3.022Y-2.626
X3.032Y-2.483
X3.078Y-2.637
X3.114Y-2.796
X3.117Y-2.431
X3.144Y-2.557
X3.161Y-2.9321
X3.169Y-3.16
X3.1926Y-2.9894
X3.2019Y-2.559
X3.2099Y-2.9001
X3.224Y-2.855
X3.251Y-2.476
X3.265Y-2.758
X3.2705Y-2.43
X3.2834Y-2.6766
X3.308Y-2.851
X3.315Y-2.64
X3.333Y-2.5006
X3.356Y-2.656
X3.491Y-2.603
X3.601Y-2.782
X3.622Y-2.681
T2
X3.2Y-3.225
X3.2Y-3.3234
X3.2787Y-3.225
X3.2787Y-3.3234
T3
X2.0Y-2.374
X2.1Y-2.374
X2.2Y-2.374
X2.3Y-2.374
X2.4Y-2.374
X2.5Y-2.374
X2.6Y-2.374
X2.7Y-2.374
X2.701Y-3.723
X2.801Y-3.723
X2.901Y-3.723
X3.001Y-3.723
X3.101Y-3.723
X3.201Y-3.723
X3.301Y-3.723
X2.001Y-3.723
X2.101Y-3.723
X2.201Y-3.723
X2.301Y-3.723
X2.401Y-3.723
X2.501Y-3.723
X1.98Y-3.41
X1.98Y-3.51
X2.08Y-3.41
X2.08Y-3.51
X2.18Y-3.41
X2.18Y-3.51
X2.892Y-2.375
X2.992Y-2.375
X3.092Y-2.375
X3.192Y-2.375
X3.292Y-2.375
X3.436Y-2.376
X3.436Y-2.476
X3.536Y-2.376
X3.536Y-2.476
X3.636Y-2.376
X3.636Y-2.476
T5
X3.3854Y-3.0372
X3.3854Y-3.5112
T4
G00X3.1856Y-2.7008
M15
G01X3.1856Y-2.7992
M16
G05
G00X3.2644Y-2.565
M15
G01X3.3431Y-2.565
M16
G05
G00X3.4219Y-2.7008
M15
G01X3.4219Y-2.7992
M16
G05
T0
M30
