G04 #@! TF.GenerationSoftware,KiCad,Pcbnew,(5.1.5)-3*
G04 #@! TF.CreationDate,2020-06-09T16:26:15+03:00*
G04 #@! TF.ProjectId,Arduino_Uno_R4,41726475-696e-46f5-9f55-6e6f5f52342e,rev?*
G04 #@! TF.SameCoordinates,Original*
G04 #@! TF.FileFunction,Legend,Bot*
G04 #@! TF.FilePolarity,Positive*
%FSLAX46Y46*%
G04 Gerber Fmt 4.6, Leading zero omitted, Abs format (unit mm)*
G04 Created by KiCad (PCBNEW (5.1.5)-3) date 2020-06-09 16:26:15*
%MOMM*%
%LPD*%
G04 APERTURE LIST*
%ADD10C,0.120000*%
%ADD11C,0.150000*%
G04 APERTURE END LIST*
D10*
X91048721Y-68607400D02*
X91374279Y-68607400D01*
X91048721Y-67587400D02*
X91374279Y-67587400D01*
X66292000Y-72709721D02*
X66292000Y-73035279D01*
X67312000Y-72709721D02*
X67312000Y-73035279D01*
X58371200Y-70042921D02*
X58371200Y-70368479D01*
X57351200Y-70042921D02*
X57351200Y-70368479D01*
X84758200Y-71692400D02*
X84758200Y-73977400D01*
X83288200Y-71692400D02*
X84758200Y-71692400D01*
X83288200Y-73977400D02*
X83288200Y-71692400D01*
X89520200Y-67014600D02*
X93420200Y-67014600D01*
X89520200Y-65014600D02*
X93420200Y-65014600D01*
X89520200Y-67014600D02*
X89520200Y-65014600D01*
X68226000Y-65112100D02*
X68226000Y-62827100D01*
X69696000Y-65112100D02*
X68226000Y-65112100D01*
X69696000Y-62827100D02*
X69696000Y-65112100D01*
X71245400Y-62827100D02*
X71245400Y-65112100D01*
X71245400Y-65112100D02*
X69775400Y-65112100D01*
X69775400Y-65112100D02*
X69775400Y-62827100D01*
X93248600Y-75055000D02*
X92318600Y-75055000D01*
X90088600Y-75055000D02*
X91018600Y-75055000D01*
X90088600Y-75055000D02*
X90088600Y-72895000D01*
X93248600Y-75055000D02*
X93248600Y-73595000D01*
X76934600Y-71490721D02*
X76934600Y-71816279D01*
X77954600Y-71490721D02*
X77954600Y-71816279D01*
X79529400Y-71816279D02*
X79529400Y-71490721D01*
X78509400Y-71816279D02*
X78509400Y-71490721D01*
X82014600Y-74915079D02*
X82014600Y-74589521D01*
X83034600Y-74915079D02*
X83034600Y-74589521D01*
X87746521Y-65530000D02*
X88072079Y-65530000D01*
X87746521Y-66550000D02*
X88072079Y-66550000D01*
X59895200Y-70368479D02*
X59895200Y-70042921D01*
X58875200Y-70368479D02*
X58875200Y-70042921D01*
X73099200Y-63789779D02*
X73099200Y-63464221D01*
X74119200Y-63789779D02*
X74119200Y-63464221D01*
X72569800Y-63789679D02*
X72569800Y-63464121D01*
X71549800Y-63789679D02*
X71549800Y-63464121D01*
X70483000Y-74526021D02*
X70483000Y-74851579D01*
X71503000Y-74526021D02*
X71503000Y-74851579D01*
X69979000Y-74526021D02*
X69979000Y-74851579D01*
X68959000Y-74526021D02*
X68959000Y-74851579D01*
X65838800Y-66660079D02*
X65838800Y-66334521D01*
X64818800Y-66660079D02*
X64818800Y-66334521D01*
X66342800Y-64958179D02*
X66342800Y-64632621D01*
X67362800Y-64958179D02*
X67362800Y-64632621D01*
X76708000Y-77033900D02*
X76708000Y-75533900D01*
X76708000Y-77033900D02*
X76708000Y-78533900D01*
X79928000Y-77033900D02*
X79928000Y-75533900D01*
X79928000Y-77033900D02*
X79928000Y-79958900D01*
X92416200Y-72272800D02*
X90616200Y-72272800D01*
X90616200Y-69052800D02*
X93066200Y-69052800D01*
X72874000Y-72015500D02*
X73349000Y-72015500D01*
X73349000Y-72015500D02*
X73349000Y-71540500D01*
X68604000Y-66795500D02*
X68129000Y-66795500D01*
X68129000Y-66795500D02*
X68129000Y-67270500D01*
X72874000Y-66795500D02*
X73349000Y-66795500D01*
X73349000Y-66795500D02*
X73349000Y-67270500D01*
X68604000Y-72015500D02*
X68129000Y-72015500D01*
X68844279Y-77471800D02*
X68518721Y-77471800D01*
X68844279Y-76451800D02*
X68518721Y-76451800D01*
X71617721Y-77446600D02*
X71943279Y-77446600D01*
X71617721Y-76426600D02*
X71943279Y-76426600D01*
D11*
X52452590Y-69983409D02*
X52928780Y-69983409D01*
X51928780Y-69650076D02*
X52452590Y-69983409D01*
X51928780Y-70316742D01*
X52928780Y-71173885D02*
X52928780Y-70602457D01*
X52928780Y-70888171D02*
X51928780Y-70888171D01*
X52071638Y-70792933D01*
X52166876Y-70697695D01*
X52214495Y-70602457D01*
X93765257Y-67947000D02*
X93800971Y-67911285D01*
X93836685Y-67804142D01*
X93836685Y-67732714D01*
X93800971Y-67625571D01*
X93729542Y-67554142D01*
X93658114Y-67518428D01*
X93515257Y-67482714D01*
X93408114Y-67482714D01*
X93265257Y-67518428D01*
X93193828Y-67554142D01*
X93122400Y-67625571D01*
X93086685Y-67732714D01*
X93086685Y-67804142D01*
X93122400Y-67911285D01*
X93158114Y-67947000D01*
X93836685Y-68661285D02*
X93836685Y-68232714D01*
X93836685Y-68447000D02*
X93086685Y-68447000D01*
X93193828Y-68375571D01*
X93265257Y-68304142D01*
X93300971Y-68232714D01*
X65729142Y-72705833D02*
X65776761Y-72658214D01*
X65824380Y-72515357D01*
X65824380Y-72420119D01*
X65776761Y-72277261D01*
X65681523Y-72182023D01*
X65586285Y-72134404D01*
X65395809Y-72086785D01*
X65252952Y-72086785D01*
X65062476Y-72134404D01*
X64967238Y-72182023D01*
X64872000Y-72277261D01*
X64824380Y-72420119D01*
X64824380Y-72515357D01*
X64872000Y-72658214D01*
X64919619Y-72705833D01*
X64824380Y-73562976D02*
X64824380Y-73372500D01*
X64872000Y-73277261D01*
X64919619Y-73229642D01*
X65062476Y-73134404D01*
X65252952Y-73086785D01*
X65633904Y-73086785D01*
X65729142Y-73134404D01*
X65776761Y-73182023D01*
X65824380Y-73277261D01*
X65824380Y-73467738D01*
X65776761Y-73562976D01*
X65729142Y-73610595D01*
X65633904Y-73658214D01*
X65395809Y-73658214D01*
X65300571Y-73610595D01*
X65252952Y-73562976D01*
X65205333Y-73467738D01*
X65205333Y-73277261D01*
X65252952Y-73182023D01*
X65300571Y-73134404D01*
X65395809Y-73086785D01*
X58243742Y-72502733D02*
X58291361Y-72455114D01*
X58338980Y-72312257D01*
X58338980Y-72217019D01*
X58291361Y-72074161D01*
X58196123Y-71978923D01*
X58100885Y-71931304D01*
X57910409Y-71883685D01*
X57767552Y-71883685D01*
X57577076Y-71931304D01*
X57481838Y-71978923D01*
X57386600Y-72074161D01*
X57338980Y-72217019D01*
X57338980Y-72312257D01*
X57386600Y-72455114D01*
X57434219Y-72502733D01*
X57338980Y-72836066D02*
X57338980Y-73502733D01*
X58338980Y-73074161D01*
X84551780Y-69848504D02*
X83551780Y-69848504D01*
X83551780Y-70086600D01*
X83599400Y-70229457D01*
X83694638Y-70324695D01*
X83789876Y-70372314D01*
X83980352Y-70419933D01*
X84123209Y-70419933D01*
X84313685Y-70372314D01*
X84408923Y-70324695D01*
X84504161Y-70229457D01*
X84551780Y-70086600D01*
X84551780Y-69848504D01*
X83551780Y-70753266D02*
X83551780Y-71372314D01*
X83932733Y-71038980D01*
X83932733Y-71181838D01*
X83980352Y-71277076D01*
X84027971Y-71324695D01*
X84123209Y-71372314D01*
X84361304Y-71372314D01*
X84456542Y-71324695D01*
X84504161Y-71277076D01*
X84551780Y-71181838D01*
X84551780Y-70896123D01*
X84504161Y-70800885D01*
X84456542Y-70753266D01*
X94395485Y-63505228D02*
X93645485Y-63505228D01*
X93645485Y-63683800D01*
X93681200Y-63790942D01*
X93752628Y-63862371D01*
X93824057Y-63898085D01*
X93966914Y-63933800D01*
X94074057Y-63933800D01*
X94216914Y-63898085D01*
X94288342Y-63862371D01*
X94359771Y-63790942D01*
X94395485Y-63683800D01*
X94395485Y-63505228D01*
X93895485Y-64576657D02*
X94395485Y-64576657D01*
X93609771Y-64398085D02*
X94145485Y-64219514D01*
X94145485Y-64683800D01*
X69232428Y-65266942D02*
X68632428Y-65266942D01*
X68632428Y-65409800D01*
X68661000Y-65495514D01*
X68718142Y-65552657D01*
X68775285Y-65581228D01*
X68889571Y-65609800D01*
X68975285Y-65609800D01*
X69089571Y-65581228D01*
X69146714Y-65552657D01*
X69203857Y-65495514D01*
X69232428Y-65409800D01*
X69232428Y-65266942D01*
X68632428Y-66152657D02*
X68632428Y-65866942D01*
X68918142Y-65838371D01*
X68889571Y-65866942D01*
X68861000Y-65924085D01*
X68861000Y-66066942D01*
X68889571Y-66124085D01*
X68918142Y-66152657D01*
X68975285Y-66181228D01*
X69118142Y-66181228D01*
X69175285Y-66152657D01*
X69203857Y-66124085D01*
X69232428Y-66066942D01*
X69232428Y-65924085D01*
X69203857Y-65866942D01*
X69175285Y-65838371D01*
X70756428Y-65266942D02*
X70156428Y-65266942D01*
X70156428Y-65409800D01*
X70185000Y-65495514D01*
X70242142Y-65552657D01*
X70299285Y-65581228D01*
X70413571Y-65609800D01*
X70499285Y-65609800D01*
X70613571Y-65581228D01*
X70670714Y-65552657D01*
X70727857Y-65495514D01*
X70756428Y-65409800D01*
X70756428Y-65266942D01*
X70156428Y-66124085D02*
X70156428Y-66009800D01*
X70185000Y-65952657D01*
X70213571Y-65924085D01*
X70299285Y-65866942D01*
X70413571Y-65838371D01*
X70642142Y-65838371D01*
X70699285Y-65866942D01*
X70727857Y-65895514D01*
X70756428Y-65952657D01*
X70756428Y-66066942D01*
X70727857Y-66124085D01*
X70699285Y-66152657D01*
X70642142Y-66181228D01*
X70499285Y-66181228D01*
X70442142Y-66152657D01*
X70413571Y-66124085D01*
X70385000Y-66066942D01*
X70385000Y-65952657D01*
X70413571Y-65895514D01*
X70442142Y-65866942D01*
X70499285Y-65838371D01*
X89498419Y-73996561D02*
X89450800Y-73901323D01*
X89355561Y-73806085D01*
X89212704Y-73663228D01*
X89165085Y-73567990D01*
X89165085Y-73472752D01*
X89403180Y-73520371D02*
X89355561Y-73425133D01*
X89260323Y-73329895D01*
X89069847Y-73282276D01*
X88736514Y-73282276D01*
X88546038Y-73329895D01*
X88450800Y-73425133D01*
X88403180Y-73520371D01*
X88403180Y-73710847D01*
X88450800Y-73806085D01*
X88546038Y-73901323D01*
X88736514Y-73948942D01*
X89069847Y-73948942D01*
X89260323Y-73901323D01*
X89355561Y-73806085D01*
X89403180Y-73710847D01*
X89403180Y-73520371D01*
X89403180Y-74901323D02*
X89403180Y-74329895D01*
X89403180Y-74615609D02*
X88403180Y-74615609D01*
X88546038Y-74520371D01*
X88641276Y-74425133D01*
X88688895Y-74329895D01*
X77922380Y-69073733D02*
X77446190Y-68740400D01*
X77922380Y-68502304D02*
X76922380Y-68502304D01*
X76922380Y-68883257D01*
X76970000Y-68978495D01*
X77017619Y-69026114D01*
X77112857Y-69073733D01*
X77255714Y-69073733D01*
X77350952Y-69026114D01*
X77398571Y-68978495D01*
X77446190Y-68883257D01*
X77446190Y-68502304D01*
X77922380Y-70026114D02*
X77922380Y-69454685D01*
X77922380Y-69740400D02*
X76922380Y-69740400D01*
X77065238Y-69645161D01*
X77160476Y-69549923D01*
X77208095Y-69454685D01*
X79497180Y-69048333D02*
X79020990Y-68715000D01*
X79497180Y-68476904D02*
X78497180Y-68476904D01*
X78497180Y-68857857D01*
X78544800Y-68953095D01*
X78592419Y-69000714D01*
X78687657Y-69048333D01*
X78830514Y-69048333D01*
X78925752Y-69000714D01*
X78973371Y-68953095D01*
X79020990Y-68857857D01*
X79020990Y-68476904D01*
X78592419Y-69429285D02*
X78544800Y-69476904D01*
X78497180Y-69572142D01*
X78497180Y-69810238D01*
X78544800Y-69905476D01*
X78592419Y-69953095D01*
X78687657Y-70000714D01*
X78782895Y-70000714D01*
X78925752Y-69953095D01*
X79497180Y-69381666D01*
X79497180Y-70000714D01*
X83002380Y-76973133D02*
X82526190Y-76639800D01*
X83002380Y-76401704D02*
X82002380Y-76401704D01*
X82002380Y-76782657D01*
X82050000Y-76877895D01*
X82097619Y-76925514D01*
X82192857Y-76973133D01*
X82335714Y-76973133D01*
X82430952Y-76925514D01*
X82478571Y-76877895D01*
X82526190Y-76782657D01*
X82526190Y-76401704D01*
X82335714Y-77830276D02*
X83002380Y-77830276D01*
X81954761Y-77592180D02*
X82669047Y-77354085D01*
X82669047Y-77973133D01*
X89199980Y-67575133D02*
X88723790Y-67241800D01*
X89199980Y-67003704D02*
X88199980Y-67003704D01*
X88199980Y-67384657D01*
X88247600Y-67479895D01*
X88295219Y-67527514D01*
X88390457Y-67575133D01*
X88533314Y-67575133D01*
X88628552Y-67527514D01*
X88676171Y-67479895D01*
X88723790Y-67384657D01*
X88723790Y-67003704D01*
X88199980Y-68479895D02*
X88199980Y-68003704D01*
X88676171Y-67956085D01*
X88628552Y-68003704D01*
X88580933Y-68098942D01*
X88580933Y-68337038D01*
X88628552Y-68432276D01*
X88676171Y-68479895D01*
X88771409Y-68527514D01*
X89009504Y-68527514D01*
X89104742Y-68479895D01*
X89152361Y-68432276D01*
X89199980Y-68337038D01*
X89199980Y-68098942D01*
X89152361Y-68003704D01*
X89104742Y-67956085D01*
X59862980Y-72502733D02*
X59386790Y-72169400D01*
X59862980Y-71931304D02*
X58862980Y-71931304D01*
X58862980Y-72312257D01*
X58910600Y-72407495D01*
X58958219Y-72455114D01*
X59053457Y-72502733D01*
X59196314Y-72502733D01*
X59291552Y-72455114D01*
X59339171Y-72407495D01*
X59386790Y-72312257D01*
X59386790Y-71931304D01*
X58862980Y-73359876D02*
X58862980Y-73169400D01*
X58910600Y-73074161D01*
X58958219Y-73026542D01*
X59101076Y-72931304D01*
X59291552Y-72883685D01*
X59672504Y-72883685D01*
X59767742Y-72931304D01*
X59815361Y-72978923D01*
X59862980Y-73074161D01*
X59862980Y-73264638D01*
X59815361Y-73359876D01*
X59767742Y-73407495D01*
X59672504Y-73455114D01*
X59434409Y-73455114D01*
X59339171Y-73407495D01*
X59291552Y-73359876D01*
X59243933Y-73264638D01*
X59243933Y-73074161D01*
X59291552Y-72978923D01*
X59339171Y-72931304D01*
X59434409Y-72883685D01*
X73880628Y-65584400D02*
X73594914Y-65384400D01*
X73880628Y-65241542D02*
X73280628Y-65241542D01*
X73280628Y-65470114D01*
X73309200Y-65527257D01*
X73337771Y-65555828D01*
X73394914Y-65584400D01*
X73480628Y-65584400D01*
X73537771Y-65555828D01*
X73566342Y-65527257D01*
X73594914Y-65470114D01*
X73594914Y-65241542D01*
X73280628Y-65784400D02*
X73280628Y-66184400D01*
X73880628Y-65927257D01*
X72356628Y-65584400D02*
X72070914Y-65384400D01*
X72356628Y-65241542D02*
X71756628Y-65241542D01*
X71756628Y-65470114D01*
X71785200Y-65527257D01*
X71813771Y-65555828D01*
X71870914Y-65584400D01*
X71956628Y-65584400D01*
X72013771Y-65555828D01*
X72042342Y-65527257D01*
X72070914Y-65470114D01*
X72070914Y-65241542D01*
X72013771Y-65927257D02*
X71985200Y-65870114D01*
X71956628Y-65841542D01*
X71899485Y-65812971D01*
X71870914Y-65812971D01*
X71813771Y-65841542D01*
X71785200Y-65870114D01*
X71756628Y-65927257D01*
X71756628Y-66041542D01*
X71785200Y-66098685D01*
X71813771Y-66127257D01*
X71870914Y-66155828D01*
X71899485Y-66155828D01*
X71956628Y-66127257D01*
X71985200Y-66098685D01*
X72013771Y-66041542D01*
X72013771Y-65927257D01*
X72042342Y-65870114D01*
X72070914Y-65841542D01*
X72128057Y-65812971D01*
X72242342Y-65812971D01*
X72299485Y-65841542D01*
X72328057Y-65870114D01*
X72356628Y-65927257D01*
X72356628Y-66041542D01*
X72328057Y-66098685D01*
X72299485Y-66127257D01*
X72242342Y-66155828D01*
X72128057Y-66155828D01*
X72070914Y-66127257D01*
X72042342Y-66098685D01*
X72013771Y-66041542D01*
X72943980Y-74522133D02*
X72467790Y-74188800D01*
X72943980Y-73950704D02*
X71943980Y-73950704D01*
X71943980Y-74331657D01*
X71991600Y-74426895D01*
X72039219Y-74474514D01*
X72134457Y-74522133D01*
X72277314Y-74522133D01*
X72372552Y-74474514D01*
X72420171Y-74426895D01*
X72467790Y-74331657D01*
X72467790Y-73950704D01*
X72943980Y-74998323D02*
X72943980Y-75188800D01*
X72896361Y-75284038D01*
X72848742Y-75331657D01*
X72705885Y-75426895D01*
X72515409Y-75474514D01*
X72134457Y-75474514D01*
X72039219Y-75426895D01*
X71991600Y-75379276D01*
X71943980Y-75284038D01*
X71943980Y-75093561D01*
X71991600Y-74998323D01*
X72039219Y-74950704D01*
X72134457Y-74903085D01*
X72372552Y-74903085D01*
X72467790Y-74950704D01*
X72515409Y-74998323D01*
X72563028Y-75093561D01*
X72563028Y-75284038D01*
X72515409Y-75379276D01*
X72467790Y-75426895D01*
X72372552Y-75474514D01*
X68558123Y-74142371D02*
X68153361Y-73859038D01*
X68558123Y-73656657D02*
X67708123Y-73656657D01*
X67708123Y-73980466D01*
X67748600Y-74061419D01*
X67789076Y-74101895D01*
X67870028Y-74142371D01*
X67991457Y-74142371D01*
X68072409Y-74101895D01*
X68112885Y-74061419D01*
X68153361Y-73980466D01*
X68153361Y-73656657D01*
X68558123Y-74951895D02*
X68558123Y-74466180D01*
X68558123Y-74709038D02*
X67708123Y-74709038D01*
X67829552Y-74628085D01*
X67910504Y-74547133D01*
X67950980Y-74466180D01*
X67708123Y-75478085D02*
X67708123Y-75559038D01*
X67748600Y-75639990D01*
X67789076Y-75680466D01*
X67870028Y-75720942D01*
X68031933Y-75761419D01*
X68234314Y-75761419D01*
X68396219Y-75720942D01*
X68477171Y-75680466D01*
X68517647Y-75639990D01*
X68558123Y-75559038D01*
X68558123Y-75478085D01*
X68517647Y-75397133D01*
X68477171Y-75356657D01*
X68396219Y-75316180D01*
X68234314Y-75275704D01*
X68031933Y-75275704D01*
X67870028Y-75316180D01*
X67789076Y-75356657D01*
X67748600Y-75397133D01*
X67708123Y-75478085D01*
X65806580Y-68775342D02*
X65330390Y-68442009D01*
X65806580Y-68203914D02*
X64806580Y-68203914D01*
X64806580Y-68584866D01*
X64854200Y-68680104D01*
X64901819Y-68727723D01*
X64997057Y-68775342D01*
X65139914Y-68775342D01*
X65235152Y-68727723D01*
X65282771Y-68680104D01*
X65330390Y-68584866D01*
X65330390Y-68203914D01*
X65806580Y-69727723D02*
X65806580Y-69156295D01*
X65806580Y-69442009D02*
X64806580Y-69442009D01*
X64949438Y-69346771D01*
X65044676Y-69251533D01*
X65092295Y-69156295D01*
X65139914Y-70584866D02*
X65806580Y-70584866D01*
X64758961Y-70346771D02*
X65473247Y-70108676D01*
X65473247Y-70727723D01*
X67305180Y-67022742D02*
X66828990Y-66689409D01*
X67305180Y-66451314D02*
X66305180Y-66451314D01*
X66305180Y-66832266D01*
X66352800Y-66927504D01*
X66400419Y-66975123D01*
X66495657Y-67022742D01*
X66638514Y-67022742D01*
X66733752Y-66975123D01*
X66781371Y-66927504D01*
X66828990Y-66832266D01*
X66828990Y-66451314D01*
X67305180Y-67975123D02*
X67305180Y-67403695D01*
X67305180Y-67689409D02*
X66305180Y-67689409D01*
X66448038Y-67594171D01*
X66543276Y-67498933D01*
X66590895Y-67403695D01*
X66305180Y-68879885D02*
X66305180Y-68403695D01*
X66781371Y-68356076D01*
X66733752Y-68403695D01*
X66686133Y-68498933D01*
X66686133Y-68737028D01*
X66733752Y-68832266D01*
X66781371Y-68879885D01*
X66876609Y-68927504D01*
X67114704Y-68927504D01*
X67209942Y-68879885D01*
X67257561Y-68832266D01*
X67305180Y-68737028D01*
X67305180Y-68498933D01*
X67257561Y-68403695D01*
X67209942Y-68356076D01*
X80220380Y-76271995D02*
X81029904Y-76271995D01*
X81125142Y-76319614D01*
X81172761Y-76367233D01*
X81220380Y-76462471D01*
X81220380Y-76652947D01*
X81172761Y-76748185D01*
X81125142Y-76795804D01*
X81029904Y-76843423D01*
X80220380Y-76843423D01*
X81220380Y-77843423D02*
X81220380Y-77271995D01*
X81220380Y-77557709D02*
X80220380Y-77557709D01*
X80363238Y-77462471D01*
X80458476Y-77367233D01*
X80506095Y-77271995D01*
X88428580Y-69900895D02*
X89238104Y-69900895D01*
X89333342Y-69948514D01*
X89380961Y-69996133D01*
X89428580Y-70091371D01*
X89428580Y-70281847D01*
X89380961Y-70377085D01*
X89333342Y-70424704D01*
X89238104Y-70472323D01*
X88428580Y-70472323D01*
X88523819Y-70900895D02*
X88476200Y-70948514D01*
X88428580Y-71043752D01*
X88428580Y-71281847D01*
X88476200Y-71377085D01*
X88523819Y-71424704D01*
X88619057Y-71472323D01*
X88714295Y-71472323D01*
X88857152Y-71424704D01*
X89428580Y-70853276D01*
X89428580Y-71472323D01*
X74179180Y-66370295D02*
X74988704Y-66370295D01*
X75083942Y-66417914D01*
X75131561Y-66465533D01*
X75179180Y-66560771D01*
X75179180Y-66751247D01*
X75131561Y-66846485D01*
X75083942Y-66894104D01*
X74988704Y-66941723D01*
X74179180Y-66941723D01*
X74179180Y-67894104D02*
X74179180Y-67417914D01*
X74655371Y-67370295D01*
X74607752Y-67417914D01*
X74560133Y-67513152D01*
X74560133Y-67751247D01*
X74607752Y-67846485D01*
X74655371Y-67894104D01*
X74750609Y-67941723D01*
X74988704Y-67941723D01*
X75083942Y-67894104D01*
X75131561Y-67846485D01*
X75179180Y-67751247D01*
X75179180Y-67513152D01*
X75131561Y-67417914D01*
X75083942Y-67370295D01*
X65822580Y-75627076D02*
X66822580Y-75960409D01*
X65822580Y-76293742D01*
X66822580Y-77198504D02*
X66346390Y-76865171D01*
X66822580Y-76627076D02*
X65822580Y-76627076D01*
X65822580Y-77008028D01*
X65870200Y-77103266D01*
X65917819Y-77150885D01*
X66013057Y-77198504D01*
X66155914Y-77198504D01*
X66251152Y-77150885D01*
X66298771Y-77103266D01*
X66346390Y-77008028D01*
X66346390Y-76627076D01*
X66822580Y-78150885D02*
X66822580Y-77579457D01*
X66822580Y-77865171D02*
X65822580Y-77865171D01*
X65965438Y-77769933D01*
X66060676Y-77674695D01*
X66108295Y-77579457D01*
X73620380Y-75677876D02*
X74620380Y-76011209D01*
X73620380Y-76344542D01*
X74620380Y-77249304D02*
X74144190Y-76915971D01*
X74620380Y-76677876D02*
X73620380Y-76677876D01*
X73620380Y-77058828D01*
X73668000Y-77154066D01*
X73715619Y-77201685D01*
X73810857Y-77249304D01*
X73953714Y-77249304D01*
X74048952Y-77201685D01*
X74096571Y-77154066D01*
X74144190Y-77058828D01*
X74144190Y-76677876D01*
X73715619Y-77630257D02*
X73668000Y-77677876D01*
X73620380Y-77773114D01*
X73620380Y-78011209D01*
X73668000Y-78106447D01*
X73715619Y-78154066D01*
X73810857Y-78201685D01*
X73906095Y-78201685D01*
X74048952Y-78154066D01*
X74620380Y-77582638D01*
X74620380Y-78201685D01*
M02*
